<?xml version="1.0" encoding="utf-8"?>
<!-- Generator: Adobe Illustrator 27.0.0, SVG Export Plug-In . SVG Version: 6.00 Build 0) -->
<svg version="1.1" id="Layer_1" xmlns="http://www.w3.org/2000/svg" xmlns:xlink="http://www.w3.org/1999/xlink" x="0px" y="0px" viewBox="0 0 384 384" style="enable-background:new 0 0 384 384;" xml:space="preserve">
	<style type="text/css">
		.st0{fill:#FFFFFF;}
	</style>
	<g>
		<path d="M0,62.13c11.47-0.06,22.94-0.15,34.41-0.18c12.85-0.03,25.69-0.02,38.54,0c28.29,0.03,48.3,17.39,52.86,45.42
		c3.58,22.01,7.55,43.95,11.36,65.93c0.15,0.84,0.48,1.65,1.52,2.66c0.48-1.37,1.32-2.72,1.38-4.1c0.18-4.36,0.01-8.73,0.09-13.09
		c0.12-6.94,3.78-10.56,10.72-10.58c11.23-0.04,22.45-0.04,33.68,0c6.75,0.02,10.46,3.58,10.6,10.31
		c0.12,5.86,0.14,11.73-0.01,17.59c-0.17,6.46-3.94,10.14-10.42,10.21c-8.36,0.09-16.72,0.17-25.07-0.05
		c-3.15-0.08-5.45,0.68-7.4,3.2c-1.66,2.16-3.71,4.01-5.74,6.15c0.43,0.55,0.74,1.06,1.16,1.45c9.73,9.29,14.37,20.67,14.32,34.12
		c-0.09,25.32,0,50.64-0.04,75.96c-0.02,11.86-6.71,18.47-18.58,18.51c-2.24,0.01-4.49,0.04-6.73,0.09c-0.22,0-0.43,0.19-1.08,0.49
		c0,9,0.12,18.2-0.03,27.39c-0.17,10.32-4.63,18.58-13.11,24.35c-9.63,6.56-20.06,7.44-30.49,2.18
		c-10.48-5.29-16.39-14.16-16.99-25.92c-0.48-9.32-0.1-18.68-0.1-28.3c-9.26,0-18.27,0-27.65,0c0,3.43,0.01,6.76,0,10.1
		c-0.03,7.27-3.18,10.39-10.54,10.43c-12.22,0.06-24.44,0.1-36.66,0.14c0-14.47,0-28.94,0-43.42c10.09,0.03,20.18,0.15,30.27,0.06
		c4.46-0.04,7.55-2.92,8.31-7.14c0.97-5.42-3.3-9.87-9.8-9.96c-9.59-0.14-19.18-0.12-28.77-0.16c0-6.49,0-12.97,0-19.46
		c15.19-0.05,30.38-0.04,45.57-0.17c5.56-0.05,9.2-3.71,9.12-8.75c-0.08-4.81-3.75-8.33-9.11-8.35
		c-15.19-0.05-30.38,0.03-45.58,0.05c0-34.93,0-69.86,0-104.8c4.51-1.25,9-3.49,13.53-3.57c20.19-0.35,40.4-0.13,60.6-0.01
		c9.1,0.06,16.31,4.01,21.64,11.35c4.17,5.75,5.94,12.27,5.97,19.31c0.02,4.45,0,8.89,0,13.34c4.33,0,8.14,0,12.11,0
		c-0.08-1.24-0.05-2.22-0.22-3.18c-3.98-23.33-7.77-46.69-12.04-69.96C98.14,92.92,82.15,83.61,61.91,87.2
		c8.7,12.28,9.64,23.06,2.89,33.09c-5.97,8.87-16.84,13.49-27.07,10.85c-15.22-3.92-21.33-14.58-20.64-29.21
		c-2.67,0.76-5.17,1.82-7.76,2.11c-3.07,0.35-6.22,0.03-9.34,0C0,90.07,0,76.1,0,62.13z M132.64,256.8
		c0-14.76-11.81-26.66-26.54-26.74c-14.61-0.08-26.71,11.92-26.77,26.56c-0.06,14.84,12.03,27.02,26.78,26.96
		C120.8,283.52,132.64,271.56,132.64,256.8z M75.09,184.22c-0.61-12.04-5.59-21.2-15.7-27.11c-11.21-6.55-22.67-6.28-33.6,0.7
		c-9.44,6.03-14.07,14.99-14.57,26.4c5.19,0,9.97,0,14.7,0c2.11-10.7,8.08-16.49,16.9-16.61c9.21-0.12,15.01,5.28,17.64,16.62
		C65.09,184.22,69.77,184.22,75.09,184.22z" />
		<path class="st0" d="M0,104.05c3.12,0.03,6.26,0.35,9.34,0c2.59-0.29,5.09-1.35,7.76-2.11c-0.69,14.62,5.42,25.28,20.64,29.21
		c10.22,2.64,21.1-1.98,27.07-10.85c6.75-10.03,5.81-20.81-2.89-33.09c20.24-3.59,36.23,5.72,39.69,24.54
		c4.27,23.27,8.06,46.63,12.04,69.96c0.16,0.96,0.14,1.95,0.22,3.18c-3.97,0-7.77,0-12.11,0c0-4.45,0.02-8.89,0-13.34
		c-0.03-7.04-1.8-13.56-5.97-19.31c-5.33-7.34-12.54-11.3-21.64-11.35c-20.2-0.12-40.4-0.34-60.6,0.01
		C9,140.98,4.51,143.22,0,144.47C0,130.99,0,117.52,0,104.05z" />
		<path class="st0" d="M0,249.26c15.19-0.03,30.38-0.11,45.58-0.05c5.36,0.02,9.04,3.54,9.11,8.35c0.08,5.04-3.56,8.7-9.12,8.75
		c-15.19,0.13-30.38,0.12-45.57,0.17C0,260.74,0,255,0,249.26z" />
		<path class="st0" d="M0,285.94c9.59,0.05,19.18,0.03,28.77,0.16c6.51,0.09,10.77,4.55,9.8,9.96c-0.76,4.22-3.85,7.1-8.31,7.14
		c-10.09,0.1-20.18-0.02-30.27-0.06C0,297.42,0,291.68,0,285.94z" />
		<path d="M349.32,195.59c0.06,1.3,0.15,2.28,0.15,3.26c0,55.49,0.02,110.99-0.01,166.48c-0.01,10.25-6.8,17.73-16.12,17.98
		c-9.64,0.26-17.32-6.94-17.42-16.62c-0.13-12.59-0.04-25.19-0.04-37.79c0-30.55,0-61.1,0-91.66c0-1.49,0-2.99,0-4.79
		c-2.32,0-4.48,0-7.33,0c0,1.44,0,2.99,0,4.54c0,42.65,0.01,85.3-0.01,127.95c0,9.17-4.25,15.38-11.99,17.7
		c-9.82,2.95-19.92-3.56-21.23-13.72c-0.19-1.48-0.25-2.98-0.26-4.48c-0.01-54.37-0.01-108.74-0.01-163.11c0-1.11,0-2.22,0-3.29
		c14.67,2.43,28.9-0.97,43.22-1.67c5.48-0.27,10.87-2.12,16.34-3.05c1.4-0.24,2.94,0.21,4.4,0.45
		C342.34,194.33,345.64,194.94,349.32,195.59z" />
		<path d="M312.47,71.24c-9.07-0.07-17.29-2.08-24.56-7.28c-3.78-2.7-6.24-6.08-5.68-11.02c0.22-1.93-0.31-3.03-2.36-3.94
		c-10.92-4.84-14.21-14.14-8.58-24.82c6.3-11.94,16.82-18.67,29.64-21.41c19.25-4.11,35.81,1.07,48.66,16.34
		c3.95,4.69,6.25,10.25,5.66,16.56c-0.62,6.7-4.69,10.84-10.69,13.16c-2.13,0.82-2.92,1.96-2.68,4.13
		c0.52,4.75-1.81,8.12-5.44,10.79C329.24,69.08,321.01,71.08,312.47,71.24z M305.45,43.36c1.16,2.86,1.95,5.9,3.54,8.44
		c1.69,2.69,4.07,2.5,6.18,0.11c3.54-4.01,3.62-12.95,0.14-17.13c-2.2-2.65-4.92-2.72-6.69,0.3
		C307.23,37.45,306.59,40.29,305.45,43.36z" />
		<path d="M349.38,125.95c0,7.88,0,15.32,0,23.21c-3.56-0.57-6.7-1.07-10.15-1.63c-0.74-8.91-1.44-17.69-2.21-26.46
		c-0.76-8.65-2.68-11.61-10.08-15.95c3.27-2.17,6.56-4.36,9.86-6.53c0.4-0.26,0.89-0.54,1.34-0.54c8.68,0.03,17.51-1.07,25.71,3.02
		c11.93,5.95,18.85,15.55,19.26,28.9c0.47,15.32,0.22,30.66,0.09,45.99c-0.08,9.01-7.79,15.25-16.63,13.72
		c-13.74-2.38-27.46-4.85-41.2-7.21c-5.83-1-10.31-3.74-12.37-9.49c-1.83-5.12-0.84-9.88,2.76-13.93c3.39-3.8,7.72-5.38,12.79-4.52
		c8.69,1.48,17.37,3.04,26.71,4.69c0-2.83,0-5.26,0-7.69c0-6.36-0.02-12.71,0-19.07C355.29,128.89,353.86,126.56,349.38,125.95z" />
		<path d="M329.86,145.69c-11.69-0.67-20.19,3.6-24.73,14.17c-4.04,9.41-1.43,17.99,8.18,27.73c-2.32,0.22-4.34,0.43-6.36,0.6
		c-7.58,0.63-15.15,1.31-22.74,1.82c-4.85,0.33-7.56-2.09-7.95-6.87c-1.5-18.76-3.01-37.52-4.44-56.29c-0.61-7.98,0.93-9.62,9-10.25
		c12.8-1,25.59-2.04,38.4-3.02c5.91-0.45,8.28,1.66,8.71,7.49c0.3,4.1,0.64,8.2,0.96,12.3C329.2,137.36,329.51,141.32,329.86,145.69
		z" />
		<path d="M299.3,105.96c-7.55,0.61-14.72,1.2-21.89,1.77c-9.06,0.72-15.04,7.33-14.83,16.43c0,0.12,0.01,0.25,0.02,0.37
		c0.32,6.97,2.44,14.19-4.17,20.79c2.58-0.48,3.87-0.72,5.62-1.05c0.59,7.61,1.21,15,1.73,22.39c0.42,5.97,0.36,5.99-5.27,7.63
		c-8.12,2.37-16.27,4.68-24.37,7.12c-6.37,1.91-11.94,0.84-16.14-4.46c-4.1-5.17-3.84-10.74-0.77-16.43
		c6.61-12.28,13.08-24.64,19.68-36.92c9.97-18.57,25.83-26.52,46.54-25.55c0.92,0.04,1.91,0.44,2.72,0.93
		C291.74,101.15,295.27,103.42,299.3,105.96z" />
		<path d="M340.81,72.26c-0.88,15.19-14.9,27.2-30.17,26.11c-14.54-1.03-27.76-13.71-26.67-25.58
		C307.78,83.04,319.48,82.96,340.81,72.26z" />
		<path class="st0" d="M132.64,256.8c0,14.75-11.85,26.71-26.52,26.78c-14.75,0.06-26.85-12.11-26.78-26.96
		c0.06-14.64,12.16-26.65,26.77-26.56C120.83,230.14,132.64,242.04,132.64,256.8z" />
		<path class="st0" d="M75.09,184.22c-5.32,0-10,0-14.62,0c-2.64-11.33-8.43-16.73-17.64-16.62c-8.82,0.11-14.8,5.91-16.9,16.61
		c-4.73,0-9.51,0-14.7,0c0.5-11.41,5.13-20.36,14.57-26.4c10.93-6.98,22.39-7.25,33.6-0.7C69.5,163.02,74.48,172.18,75.09,184.22z" />
		<path class="st0" d="M305.45,43.36c1.14-3.07,1.78-5.91,3.18-8.29c1.77-3.02,4.48-2.95,6.69-0.3c3.48,4.18,3.4,13.12-0.14,17.13
		c-2.12,2.39-4.49,2.59-6.18-0.11C307.4,49.26,306.61,46.22,305.45,43.36z" />
	</g>
</svg>
